<svg width="175" height="45" viewBox="0 0 175 45" fill="none" xmlns="http://www.w3.org/2000/svg">
<path d="M12.096 8.152C11.856 7.88 11.576 7.64 11.256 7.432C10.936 7.208 10.576 7.016 10.176 6.856C9.776 6.696 9.344 6.568 8.88 6.472C8.432 6.376 7.952 6.328 7.44 6.328C5.952 6.328 4.856 6.616 4.152 7.192C3.464 7.752 3.12 8.52 3.12 9.496C3.12 10.168 3.28 10.696 3.6 11.08C3.936 11.464 4.456 11.776 5.16 12.016C5.864 12.256 6.76 12.504 7.848 12.76C9.064 13.016 10.112 13.32 10.992 13.672C11.872 14.024 12.552 14.504 13.032 15.112C13.512 15.704 13.752 16.512 13.752 17.536C13.752 18.32 13.6 19 13.296 19.576C12.992 20.152 12.568 20.632 12.024 21.016C11.48 21.4 10.832 21.688 10.08 21.88C9.328 22.056 8.504 22.144 7.608 22.144C6.728 22.144 5.88 22.056 5.064 21.88C4.264 21.688 3.504 21.416 2.784 21.064C2.064 20.696 1.392 20.232 0.768 19.672L1.608 18.304C1.912 18.624 2.272 18.928 2.688 19.216C3.12 19.488 3.592 19.736 4.104 19.96C4.632 20.184 5.192 20.36 5.784 20.488C6.392 20.6 7.016 20.656 7.656 20.656C9.016 20.656 10.072 20.408 10.824 19.912C11.592 19.416 11.976 18.68 11.976 17.704C11.976 17 11.784 16.44 11.4 16.024C11.016 15.592 10.44 15.24 9.672 14.968C8.904 14.696 7.96 14.432 6.84 14.176C5.656 13.904 4.656 13.6 3.84 13.264C3.024 12.928 2.408 12.488 1.992 11.944C1.592 11.384 1.392 10.648 1.392 9.736C1.392 8.68 1.648 7.792 2.16 7.072C2.688 6.336 3.408 5.784 4.32 5.416C5.232 5.032 6.28 4.84 7.464 4.84C8.216 4.84 8.912 4.92 9.552 5.08C10.208 5.224 10.808 5.44 11.352 5.728C11.912 6.016 12.432 6.376 12.912 6.808L12.096 8.152ZM18.6341 22V4.96H25.6901C26.4261 4.96 27.0981 5.112 27.7061 5.416C28.3301 5.72 28.8661 6.136 29.3141 6.664C29.7621 7.176 30.1141 7.752 30.3701 8.392C30.6261 9.016 30.7541 9.656 30.7541 10.312C30.7541 11.24 30.5461 12.12 30.1301 12.952C29.7301 13.768 29.1621 14.432 28.4261 14.944C27.6901 15.456 26.8261 15.712 25.8341 15.712H20.3141V22H18.6341ZM20.3141 14.224H25.7621C26.4341 14.224 27.0181 14.04 27.5141 13.672C28.0101 13.304 28.3941 12.824 28.6661 12.232C28.9381 11.64 29.0741 11 29.0741 10.312C29.0741 9.608 28.9141 8.96 28.5941 8.368C28.2741 7.776 27.8501 7.312 27.3221 6.976C26.8101 6.624 26.2421 6.448 25.6181 6.448H20.3141V14.224ZM39.5919 4.96H41.0079L48.0879 22H46.3119L44.1039 16.672H36.4479L34.2639 22H32.4639L39.5919 4.96ZM43.7199 15.352L40.2879 6.928L36.8079 15.352H43.7199ZM50.6899 13.36C50.6899 12.32 50.8659 11.304 51.2179 10.312C51.5859 9.304 52.1139 8.392 52.8019 7.576C53.4899 6.744 54.3379 6.088 55.3459 5.608C56.3539 5.112 57.4979 4.864 58.7779 4.864C60.2979 4.864 61.5939 5.216 62.6659 5.92C63.7539 6.608 64.5539 7.496 65.0659 8.584L63.7459 9.4C63.3779 8.648 62.9139 8.056 62.3539 7.624C61.7939 7.176 61.1939 6.856 60.5539 6.664C59.9299 6.472 59.3059 6.376 58.6819 6.376C57.6579 6.376 56.7539 6.584 55.9699 7C55.1859 7.4 54.5219 7.944 53.9779 8.632C53.4499 9.304 53.0499 10.064 52.7779 10.912C52.5059 11.744 52.3699 12.592 52.3699 13.456C52.3699 14.4 52.5299 15.304 52.8499 16.168C53.1699 17.032 53.6179 17.8 54.1939 18.472C54.7699 19.128 55.4419 19.656 56.2099 20.056C56.9939 20.44 57.8419 20.632 58.7539 20.632C59.3939 20.632 60.0499 20.52 60.7219 20.296C61.3939 20.072 62.0179 19.728 62.5939 19.264C63.1859 18.8 63.6579 18.2 64.0099 17.464L65.4019 18.184C65.0499 19.032 64.5059 19.752 63.7699 20.344C63.0339 20.936 62.2099 21.384 61.2979 21.688C60.4019 21.992 59.5219 22.144 58.6579 22.144C57.4899 22.144 56.4179 21.896 55.4419 21.4C54.4659 20.888 53.6179 20.216 52.8979 19.384C52.1939 18.536 51.6499 17.592 51.2659 16.552C50.8819 15.496 50.6899 14.432 50.6899 13.36ZM81.639 20.512V22H70.191V4.96H81.423V6.448H71.871V12.592H80.199V14.008H71.871V20.512H81.639Z" fill="white"/>
<path d="M12.096 8.152L11.1212 9.01211L12.2902 10.337L13.2072 8.82667L12.096 8.152ZM11.256 7.432L10.5105 8.497L10.5288 8.50981L10.5475 8.52198L11.256 7.432ZM8.88 6.472L8.6076 7.74317L8.61661 7.74504L8.88 6.472ZM4.152 7.192L4.97266 8.20023L4.97521 8.19814L4.152 7.192ZM3.6 11.08L2.60131 11.9122L2.61134 11.9243L2.62165 11.9361L3.6 11.08ZM5.16 12.016L4.74052 13.2465L4.74052 13.2465L5.16 12.016ZM7.848 12.76L7.55025 14.0254L7.56518 14.029L7.58019 14.0321L7.848 12.76ZM10.992 13.672L10.5092 14.879L10.5092 14.879L10.992 13.672ZM13.032 15.112L12.0117 15.9175L12.0169 15.9242L12.0222 15.9307L13.032 15.112ZM13.296 19.576L14.4457 20.1828L14.4457 20.1828L13.296 19.576ZM12.024 21.016L12.7737 22.0781L12.7737 22.0781L12.024 21.016ZM10.08 21.88L10.3763 23.1458L10.389 23.1428L10.4016 23.1396L10.08 21.88ZM5.064 21.88L4.76062 23.1441L4.77522 23.1476L4.78991 23.1508L5.064 21.88ZM2.784 21.064L2.19236 22.2216L2.20265 22.2268L2.21303 22.2319L2.784 21.064ZM0.768 19.672L-0.339823 18.9918L-0.907036 19.9155L-0.100283 20.6395L0.768 19.672ZM1.608 18.304L2.5505 17.4086L1.38536 16.1822L0.500177 17.6238L1.608 18.304ZM2.688 19.216L1.94803 20.2848L1.97134 20.301L1.99534 20.3161L2.688 19.216ZM4.104 19.96L3.58294 21.151L3.58959 21.1539L3.59629 21.1568L4.104 19.96ZM5.784 20.488L5.50927 21.7586L5.52882 21.7629L5.54849 21.7665L5.784 20.488ZM10.824 19.912L10.1187 18.8199L10.1082 18.8268L10.824 19.912ZM11.4 16.024L10.4284 16.8877L10.4365 16.8968L10.4448 16.9058L11.4 16.024ZM6.84 14.176L6.54893 15.443L6.55033 15.4433L6.84 14.176ZM3.84 13.264L4.33497 12.0619L4.33497 12.0619L3.84 13.264ZM1.992 11.944L0.934147 12.6996L0.946463 12.7169L0.959335 12.7337L1.992 11.944ZM2.16 7.072L1.10369 6.31421L1.10056 6.31862L2.16 7.072ZM4.32 5.416L4.80645 6.62155L4.81549 6.61791L4.82447 6.61412L4.32 5.416ZM9.552 5.08L9.2367 6.34118L9.25493 6.34574L9.27327 6.34977L9.552 5.08ZM11.352 5.728L10.7437 6.87692L10.7506 6.88054L10.7574 6.88407L11.352 5.728ZM12.912 6.808L14.0232 7.48267L14.5821 6.56214L13.7817 5.84172L12.912 6.808ZM13.0708 7.29189C12.7489 6.92706 12.3781 6.61088 11.9645 6.34202L10.5475 8.52198C10.7739 8.66912 10.9631 8.83294 11.1212 9.01211L13.0708 7.29189ZM12.0015 6.367C11.5918 6.0802 11.1421 5.84231 10.6588 5.64898L9.69319 8.06302C10.0099 8.18968 10.2802 8.3358 10.5105 8.497L12.0015 6.367ZM10.6588 5.64898C10.1811 5.4579 9.67499 5.30895 9.14339 5.19896L8.61661 7.74504C9.01301 7.82705 9.37088 7.93409 9.69319 8.06302L10.6588 5.64898ZM9.15239 5.20086C8.60512 5.08358 8.03303 5.028 7.44 5.028V7.628C7.87097 7.628 8.25888 7.66841 8.60761 7.74314L9.15239 5.20086ZM7.44 5.028C5.82882 5.028 4.37255 5.33187 3.32879 6.18585L4.97521 8.19814C5.33945 7.90013 6.07518 7.628 7.44 7.628V5.028ZM3.33135 6.18377C2.30709 7.01746 1.82 8.1735 1.82 9.496H4.42C4.42 8.8665 4.62091 8.48654 4.97265 8.20023L3.33135 6.18377ZM1.82 9.496C1.82 10.367 2.02854 11.2249 2.60131 11.9122L4.59869 10.2478C4.53146 10.1671 4.42 9.96897 4.42 9.496H1.82ZM2.62165 11.9361C3.16126 12.5527 3.9131 12.9644 4.74052 13.2465L5.57948 10.7855C4.9989 10.5876 4.71074 10.3753 4.57835 10.2239L2.62165 11.9361ZM4.74052 13.2465C5.49898 13.505 6.43934 13.7641 7.55025 14.0254L8.14575 11.4946C7.08066 11.2439 6.22902 11.007 5.57948 10.7855L4.74052 13.2465ZM7.58019 14.0321C8.74399 14.2771 9.71643 14.5619 10.5092 14.879L11.4748 12.465C10.5076 12.0781 9.38401 11.7549 8.11581 11.4879L7.58019 14.0321ZM10.5092 14.879C11.2249 15.1653 11.701 15.524 12.0117 15.9175L14.0523 14.3065C13.403 13.484 12.5191 12.8827 11.4748 12.465L10.5092 14.879ZM12.0222 15.9307C12.2588 16.2225 12.452 16.7077 12.452 17.536H15.052C15.052 16.3163 14.7652 15.1855 14.0418 14.2933L12.0222 15.9307ZM12.452 17.536C12.452 18.1513 12.3334 18.6147 12.1463 18.9692L14.4457 20.1828C14.8666 19.3853 15.052 18.4887 15.052 17.536H12.452ZM12.1463 18.9692C11.9401 19.3599 11.6549 19.6853 11.2743 19.9539L12.7737 22.0781C13.4811 21.5787 14.0439 20.9441 14.4457 20.1828L12.1463 18.9692ZM11.2743 19.9539C10.8793 20.2328 10.3819 20.4612 9.7584 20.6204L10.4016 23.1396C11.2821 22.9148 12.0807 22.5672 12.7737 22.0781L11.2743 19.9539ZM9.78375 20.6142C9.14286 20.7642 8.41975 20.844 7.608 20.844V23.444C8.58825 23.444 9.51314 23.3478 10.3763 23.1458L9.78375 20.6142ZM7.608 20.844C6.81517 20.844 6.05929 20.7648 5.33809 20.6092L4.78991 23.1508C5.70071 23.3472 6.64083 23.444 7.608 23.444V20.844ZM5.36739 20.6159C4.65737 20.4455 3.98732 20.2052 3.35497 19.8961L2.21303 22.2319C3.02068 22.6268 3.87063 22.9305 4.76062 23.1441L5.36739 20.6159ZM3.37564 19.9064C2.75932 19.5914 2.17977 19.1922 1.63628 18.7045L-0.100283 20.6395C0.604234 21.2718 1.36868 21.8006 2.19236 22.2216L3.37564 19.9064ZM1.87582 20.3522L2.71582 18.9842L0.500177 17.6238L-0.339823 18.9918L1.87582 20.3522ZM0.665501 19.1994C1.03903 19.5926 1.46916 19.9533 1.94803 20.2848L3.42797 18.1472C3.07484 17.9027 2.78497 17.6554 2.5505 17.4086L0.665501 19.1994ZM1.99534 20.3161C2.48706 20.6257 3.01707 20.9034 3.58294 21.151L4.62506 18.769C4.16693 18.5686 3.75294 18.3503 3.38066 18.1159L1.99534 20.3161ZM3.59629 21.1568C4.20352 21.4144 4.8419 21.6143 5.50927 21.7586L6.05873 19.2174C5.5421 19.1057 5.06048 18.9536 4.61171 18.7632L3.59629 21.1568ZM5.54849 21.7665C6.23686 21.8933 6.93978 21.956 7.656 21.956V19.356C7.09222 19.356 6.54714 19.3067 6.01951 19.2095L5.54849 21.7665ZM7.656 21.956C9.14922 21.956 10.4928 21.6878 11.5398 20.9972L10.1082 18.8268C9.65123 19.1282 8.88279 19.356 7.656 19.356V21.956ZM11.5293 21.0041C12.6971 20.2499 13.276 19.0857 13.276 17.704H10.676C10.676 18.2743 10.4869 18.5821 10.1187 18.8199L11.5293 21.0041ZM13.276 17.704C13.276 16.7564 13.0115 15.8532 12.3552 15.1422L10.4448 16.9058C10.5565 17.0268 10.676 17.2436 10.676 17.704H13.276ZM12.3716 15.1603C11.7943 14.5108 11.0009 14.0595 10.106 13.7426L9.238 16.1934C9.87913 16.4205 10.2377 16.6732 10.4284 16.8877L12.3716 15.1603ZM10.106 13.7426C9.27599 13.4486 8.28046 13.1717 7.12967 12.9087L6.55033 15.4433C7.63955 15.6923 8.53201 15.9434 9.238 16.1934L10.106 13.7426ZM7.13107 12.909C5.99276 12.6475 5.06553 12.3627 4.33497 12.0619L3.34503 14.4661C4.24647 14.8373 5.31924 15.1605 6.54893 15.443L7.13107 12.909ZM4.33497 12.0619C3.67147 11.7887 3.26628 11.4703 3.02467 11.1543L0.959335 12.7337C1.54972 13.5057 2.37653 14.0673 3.34503 14.4661L4.33497 12.0619ZM3.04985 11.1884C2.8514 10.9106 2.692 10.4642 2.692 9.736H0.0920001C0.0920001 10.8317 0.332599 11.8574 0.934147 12.6996L3.04985 11.1884ZM2.692 9.736C2.692 8.89606 2.89253 8.2851 3.21944 7.82538L1.10056 6.31862C0.403472 7.2989 0.0920001 8.46394 0.0920001 9.736H2.692ZM3.2163 7.82978C3.58835 7.31117 4.10263 6.90555 4.80645 6.62155L3.83355 4.21044C2.71337 4.66245 1.78765 5.36083 1.1037 6.31422L3.2163 7.82978ZM4.82447 6.61412C5.54866 6.3092 6.4199 6.14 7.464 6.14V3.54C6.1401 3.54 4.91534 3.75479 3.81553 4.21787L4.82447 6.61412ZM7.464 6.14C8.12423 6.14 8.71301 6.21026 9.2367 6.34118L9.8673 3.81881C9.11099 3.62974 8.30777 3.54 7.464 3.54V6.14ZM9.27327 6.34977C9.82484 6.47084 10.3126 6.64867 10.7437 6.87692L11.9603 4.57907C11.3034 4.23133 10.5912 3.97716 9.83073 3.81023L9.27327 6.34977ZM10.7574 6.88407C11.2154 7.11961 11.6434 7.4152 12.0423 7.77428L13.7817 5.84172C13.2206 5.3368 12.6086 4.91239 11.9466 4.57193L10.7574 6.88407ZM11.8008 6.13333L10.9848 7.47733L13.2072 8.82667L14.0232 7.48267L11.8008 6.13333ZM18.6341 22H17.3341V23.3H18.6341V22ZM18.6341 4.96V3.66H17.3341V4.96H18.6341ZM27.7061 5.416L27.1247 6.57882L27.1368 6.58469L27.7061 5.416ZM29.3141 6.664L28.3229 7.50507L28.3293 7.51261L28.3358 7.52005L29.3141 6.664ZM30.3701 8.392L29.1631 8.87482L29.1674 8.88542L30.3701 8.392ZM30.1301 12.952L28.9673 12.3706L28.9628 12.3798L30.1301 12.952ZM28.4261 14.944L27.6837 13.8768L27.6837 13.8768L28.4261 14.944ZM20.3141 15.712V14.412H19.0141V15.712H20.3141ZM20.3141 22V23.3H21.6141V22H20.3141ZM20.3141 14.224H19.0141V15.524H20.3141V14.224ZM28.6661 12.232L29.8474 12.7748L29.8474 12.7748L28.6661 12.232ZM28.5941 8.368L27.4505 8.98617L27.4505 8.98617L28.5941 8.368ZM27.3221 6.976L26.5856 8.04725L26.6047 8.06035L26.6242 8.07276L27.3221 6.976ZM20.3141 6.448V5.148H19.0141V6.448H20.3141ZM19.9341 22V4.96H17.3341V22H19.9341ZM18.6341 6.26H25.6901V3.66H18.6341V6.26ZM25.6901 6.26C26.2413 6.26 26.7119 6.37233 27.1247 6.57875L28.2875 4.25324C27.4844 3.85167 26.6109 3.66 25.6901 3.66V6.26ZM27.1368 6.58469C27.5994 6.81006 27.9916 7.11464 28.3229 7.50507L30.3054 5.82293C29.7407 5.15736 29.0609 4.62994 28.2755 4.24731L27.1368 6.58469ZM28.3358 7.52005C28.6857 7.91998 28.961 8.36942 29.1631 8.87481L31.5771 7.90919C31.2673 7.13458 30.8385 6.43202 30.2925 5.80794L28.3358 7.52005ZM29.1674 8.88542C29.361 9.35735 29.4541 9.83004 29.4541 10.312H32.0541C32.0541 9.48196 31.8912 8.67465 31.5728 7.89858L29.1674 8.88542ZM29.4541 10.312C29.4541 11.0377 29.2933 11.7187 28.9674 12.3706L31.2929 13.5334C31.7989 12.5213 32.0541 11.4423 32.0541 10.312H29.4541ZM28.9628 12.3798C28.6587 13.0002 28.2358 13.4928 27.6837 13.8768L29.1685 16.0112C30.0885 15.3712 30.8015 14.5358 31.2974 13.5242L28.9628 12.3798ZM27.6837 13.8768C27.1887 14.2212 26.5902 14.412 25.8341 14.412V17.012C27.062 17.012 28.1916 16.6908 29.1685 16.0112L27.6837 13.8768ZM25.8341 14.412H20.3141V17.012H25.8341V14.412ZM19.0141 15.712V22H21.6141V15.712H19.0141ZM20.3141 20.7H18.6341V23.3H20.3141V20.7ZM20.3141 15.524H25.7621V12.924H20.3141V15.524ZM25.7621 15.524C26.6871 15.524 27.5487 15.2651 28.2887 14.716L26.7395 12.628C26.4876 12.8149 26.1811 12.924 25.7621 12.924V15.524ZM28.2887 14.716C28.97 14.2106 29.4893 13.5541 29.8474 12.7748L27.4848 11.6892C27.2989 12.0939 27.0503 12.3974 26.7395 12.628L28.2887 14.716ZM29.8474 12.7748C30.202 12.003 30.3741 11.1766 30.3741 10.312H27.7741C27.7741 10.8234 27.6743 11.277 27.4848 11.6892L29.8474 12.7748ZM30.3741 10.312C30.3741 9.40247 30.1652 8.54058 29.7377 7.74983L27.4505 8.98617C27.6631 9.37942 27.7741 9.81353 27.7741 10.312H30.3741ZM29.7377 7.74983C29.3206 6.97805 28.749 6.34308 28.0201 5.87924L26.6242 8.07276C26.9513 8.28091 27.2277 8.57395 27.4505 8.98617L29.7377 7.74983ZM28.0586 5.90474C27.3289 5.40307 26.5039 5.148 25.6181 5.148V7.748C25.9804 7.748 26.2913 7.84493 26.5856 8.04725L28.0586 5.90474ZM25.6181 5.148H20.3141V7.748H25.6181V5.148ZM19.0141 6.448V14.224H21.6141V6.448H19.0141ZM39.5919 4.96V3.66H38.7266L38.3926 4.45832L39.5919 4.96ZM41.0079 4.96L42.2084 4.4612L41.8755 3.66H41.0079V4.96ZM48.0879 22V23.3H50.0358L49.2884 21.5012L48.0879 22ZM46.3119 22L45.111 22.4977L45.4435 23.3H46.3119V22ZM44.1039 16.672L45.3049 16.1743L44.9724 15.372H44.1039V16.672ZM36.4479 16.672V15.372H35.5758L35.2451 16.1789L36.4479 16.672ZM34.2639 22V23.3H35.136L35.4668 22.4931L34.2639 22ZM32.4639 22L31.2646 21.4983L30.511 23.3H32.4639V22ZM43.7199 15.352V16.652H45.6533L44.9239 14.8615L43.7199 15.352ZM40.2879 6.928L41.4919 6.43751L40.2963 3.50294L39.0864 6.43165L40.2879 6.928ZM36.8079 15.352L35.6064 14.8556L34.8643 16.652H36.8079V15.352ZM39.5919 6.26H41.0079V3.66H39.5919V6.26ZM39.8074 5.4588L46.8874 22.4988L49.2884 21.5012L42.2084 4.4612L39.8074 5.4588ZM48.0879 20.7H46.3119V23.3H48.0879V20.7ZM47.5129 21.5023L45.3049 16.1743L42.903 17.1697L45.111 22.4977L47.5129 21.5023ZM44.1039 15.372H36.4479V17.972H44.1039V15.372ZM35.2451 16.1789L33.0611 21.5069L35.4668 22.4931L37.6508 17.1651L35.2451 16.1789ZM34.2639 20.7H32.4639V23.3H34.2639V20.7ZM33.6632 22.5017L40.7912 5.46168L38.3926 4.45832L31.2646 21.4983L33.6632 22.5017ZM44.9239 14.8615L41.4919 6.43751L39.084 7.41849L42.516 15.8425L44.9239 14.8615ZM39.0864 6.43165L35.6064 14.8556L38.0095 15.8484L41.4895 7.42435L39.0864 6.43165ZM36.8079 16.652H43.7199V14.052H36.8079V16.652ZM51.2179 10.312L49.9967 9.86616L49.9927 9.87727L51.2179 10.312ZM52.8019 7.576L53.7958 8.41401L53.8037 8.40444L52.8019 7.576ZM55.3459 5.608L55.9048 6.78172L55.9123 6.77812L55.9198 6.77443L55.3459 5.608ZM62.6659 5.92L61.9523 7.00663L61.9616 7.01277L61.9711 7.01875L62.6659 5.92ZM65.0659 8.584L65.7494 9.68977L66.736 9.07991L66.2421 8.03046L65.0659 8.584ZM63.7459 9.4L62.5782 9.97142L63.2089 11.2603L64.4294 10.5058L63.7459 9.4ZM62.3539 7.624L61.5418 8.63913L61.5507 8.6463L61.5598 8.65332L62.3539 7.624ZM60.5539 6.664L60.1716 7.90654L60.1803 7.90917L60.5539 6.664ZM55.9699 7L56.5607 8.15799L56.57 8.15325L56.5792 8.14835L55.9699 7ZM53.9779 8.632L52.9581 7.82569L52.9557 7.82883L53.9779 8.632ZM52.7779 10.912L54.0135 11.316L54.0158 11.3091L52.7779 10.912ZM52.8499 16.168L51.6308 16.6195L51.6308 16.6195L52.8499 16.168ZM54.1939 18.472L53.2068 19.318L53.2119 19.3239L53.217 19.3297L54.1939 18.472ZM56.2099 20.056L55.6094 21.209L55.6236 21.2164L55.638 21.2235L56.2099 20.056ZM60.7219 20.296L60.3108 19.0627L60.3108 19.0627L60.7219 20.296ZM62.5939 19.264L61.7919 18.2408L61.7851 18.2462L61.7783 18.2516L62.5939 19.264ZM64.0099 17.464L64.6071 16.3093L63.4158 15.6931L62.8371 16.9031L64.0099 17.464ZM65.4019 18.184L66.6025 18.6824L67.0608 17.5785L65.9991 17.0293L65.4019 18.184ZM63.7699 20.344L62.9551 19.331L62.9551 19.331L63.7699 20.344ZM61.2979 21.688L60.8868 20.4547L60.8802 20.4569L61.2979 21.688ZM55.4419 21.4L54.838 22.5512L54.8454 22.5551L54.8529 22.5589L55.4419 21.4ZM52.8979 19.384L51.8976 20.2144L51.9061 20.2246L51.9149 20.2347L52.8979 19.384ZM51.2659 16.552L50.0441 16.9963L50.0463 17.0023L51.2659 16.552ZM51.9899 13.36C51.9899 12.4699 52.1399 11.6009 52.443 10.7467L49.9927 9.87727C49.5918 11.0071 49.3899 12.1701 49.3899 13.36H51.9899ZM52.439 10.7578C52.7551 9.89205 53.2064 9.11294 53.7958 8.41398L51.808 6.73802C51.0213 7.67106 50.4166 8.71594 49.9967 9.86618L52.439 10.7578ZM53.8037 8.40444C54.3668 7.72347 55.0618 7.18313 55.9048 6.78172L54.787 4.43428C53.6139 4.99287 52.6129 5.76453 51.8 6.74756L53.8037 8.40444ZM55.9198 6.77443C56.7258 6.37783 57.669 6.164 58.7779 6.164V3.564C57.3267 3.564 55.9819 3.84617 54.7719 4.44156L55.9198 6.77443ZM58.7779 6.164C60.0921 6.164 61.1289 6.46592 61.9523 7.00663L63.3795 4.83337C62.0588 3.96608 60.5037 3.564 58.7779 3.564V6.164ZM61.9711 7.01875C62.8654 7.58427 63.4905 8.28933 63.8896 9.13754L66.2421 8.03046C65.6173 6.70267 64.6424 5.63173 63.3607 4.82125L61.9711 7.01875ZM64.3823 7.47823L63.0623 8.29423L64.4294 10.5058L65.7494 9.68977L64.3823 7.47823ZM64.9136 8.82858C64.4738 7.93 63.8925 7.16905 63.1479 6.59468L61.5598 8.65332C61.9353 8.94294 62.2819 9.366 62.5782 9.97142L64.9136 8.82858ZM63.166 6.60887C62.4855 6.06449 61.7384 5.66212 60.9274 5.41882L60.1803 7.90917C60.6494 8.04988 61.1022 8.2875 61.5418 8.63913L63.166 6.60887ZM60.9362 5.42149C60.1941 5.19315 59.4414 5.076 58.6819 5.076V7.676C59.1704 7.676 59.6657 7.75085 60.1716 7.90651L60.9362 5.42149ZM58.6819 5.076C57.4783 5.076 56.3592 5.32172 55.3605 5.85165L56.5792 8.14835C57.1485 7.84627 57.8375 7.676 58.6819 7.676V5.076ZM55.3791 5.84201C54.4291 6.32671 53.6186 6.99044 52.9581 7.82569L54.9976 9.43831C55.4252 8.89755 55.9427 8.47329 56.5607 8.15799L55.3791 5.84201ZM52.9557 7.82883C52.3282 8.62738 51.8572 9.5261 51.54 10.5149L54.0158 11.3091C54.2426 10.6019 54.5715 9.98061 55.0001 9.43517L52.9557 7.82883ZM51.5422 10.508C51.2282 11.4687 51.0699 12.453 51.0699 13.456H53.6699C53.6699 12.731 53.7836 12.0193 54.0135 11.316L51.5422 10.508ZM51.0699 13.456C51.0699 14.5503 51.256 15.6074 51.6308 16.6195L54.0689 15.7165C53.8038 15.0006 53.6699 14.2497 53.6699 13.456H51.0699ZM51.6308 16.6195C52.002 17.6217 52.5267 18.5245 53.2068 19.318L55.1809 17.626C54.7091 17.0755 54.3378 16.4423 54.0689 15.7165L51.6308 16.6195ZM53.217 19.3297C53.8982 20.1056 54.6975 20.7341 55.6094 21.209L56.8104 18.903C56.1862 18.5779 55.6415 18.1504 55.1707 17.6143L53.217 19.3297ZM55.638 21.2235C56.6081 21.6986 57.6528 21.932 58.7539 21.932V19.332C58.031 19.332 57.3797 19.1814 56.7817 18.8885L55.638 21.2235ZM58.7539 21.932C59.5477 21.932 60.3425 21.7928 61.133 21.5293L60.3108 19.0627C59.7573 19.2472 59.2401 19.332 58.7539 19.332V21.932ZM61.133 21.5293C61.9583 21.2542 62.7182 20.8332 63.4094 20.2764L61.7783 18.2516C61.3175 18.6228 60.8295 18.8898 60.3108 19.0627L61.133 21.5293ZM63.3958 20.2872C64.1584 19.6895 64.7517 18.9259 65.1826 18.0249L62.8371 16.9031C62.564 17.4741 62.2133 17.9105 61.7919 18.2408L63.3958 20.2872ZM63.4126 18.6187L64.8046 19.3387L65.9991 17.0293L64.6071 16.3093L63.4126 18.6187ZM64.2012 17.6856C63.9352 18.3265 63.5265 18.8714 62.9551 19.331L64.5847 21.357C65.4853 20.6326 66.1646 19.7375 66.6025 18.6824L64.2012 17.6856ZM62.9551 19.331C62.3417 19.8244 61.6548 20.1987 60.8868 20.4547L61.709 22.9213C62.7649 22.5693 63.7261 22.0476 64.5847 21.357L62.9551 19.331ZM60.8802 20.4569C60.106 20.7196 59.367 20.844 58.6579 20.844V23.444C59.6768 23.444 60.6978 23.2644 61.7156 22.9191L60.8802 20.4569ZM58.6579 20.844C57.6805 20.844 56.8122 20.6382 56.0308 20.2411L54.8529 22.5589C56.0235 23.1538 57.2992 23.444 58.6579 23.444V20.844ZM56.0458 20.2488C55.2136 19.8122 54.4943 19.2421 53.8809 18.5333L51.9149 20.2347C52.7415 21.1899 53.7182 21.9638 54.838 22.5512L56.0458 20.2488ZM53.8981 18.5536C53.2888 17.8197 52.8187 17.0043 52.4854 16.1017L50.0463 17.0023C50.4811 18.1797 51.099 19.2523 51.8976 20.2144L53.8981 18.5536ZM52.4876 16.1077C52.1529 15.1872 51.9899 14.2733 51.9899 13.36H49.3899C49.3899 14.5907 49.6109 15.8048 50.0441 16.9963L52.4876 16.1077ZM81.639 20.512H82.939V19.212H81.639V20.512ZM81.639 22V23.3H82.939V22H81.639ZM70.191 22H68.891V23.3H70.191V22ZM70.191 4.96V3.66H68.891V4.96H70.191ZM81.423 4.96H82.723V3.66H81.423V4.96ZM81.423 6.448V7.748H82.723V6.448H81.423ZM71.871 6.448V5.148H70.571V6.448H71.871ZM71.871 12.592H70.571V13.892H71.871V12.592ZM80.199 12.592H81.499V11.292H80.199V12.592ZM80.199 14.008V15.308H81.499V14.008H80.199ZM71.871 14.008V12.708H70.571V14.008H71.871ZM71.871 20.512H70.571V21.812H71.871V20.512ZM80.339 20.512V22H82.939V20.512H80.339ZM81.639 20.7H70.191V23.3H81.639V20.7ZM71.491 22V4.96H68.891V22H71.491ZM70.191 6.26H81.423V3.66H70.191V6.26ZM80.123 4.96V6.448H82.723V4.96H80.123ZM81.423 5.148H71.871V7.748H81.423V5.148ZM70.571 6.448V12.592H73.171V6.448H70.571ZM71.871 13.892H80.199V11.292H71.871V13.892ZM78.899 12.592V14.008H81.499V12.592H78.899ZM80.199 12.708H71.871V15.308H80.199V12.708ZM70.571 14.008V20.512H73.171V14.008H70.571ZM71.871 21.812H81.639V19.212H71.871V21.812Z" fill="white"/>
<path d="M93.136 22V4.96H100.192C100.928 4.96 101.6 5.112 102.208 5.416C102.832 5.72 103.368 6.136 103.816 6.664C104.264 7.176 104.616 7.752 104.872 8.392C105.128 9.016 105.256 9.656 105.256 10.312C105.256 11.24 105.048 12.12 104.632 12.952C104.232 13.768 103.664 14.432 102.928 14.944C102.192 15.456 101.328 15.712 100.336 15.712H94.816V22H93.136ZM94.816 14.224H100.264C100.936 14.224 101.52 14.04 102.016 13.672C102.512 13.304 102.896 12.824 103.168 12.232C103.44 11.64 103.576 11 103.576 10.312C103.576 9.608 103.416 8.96 103.096 8.368C102.776 7.776 102.352 7.312 101.824 6.976C101.312 6.624 100.744 6.448 100.12 6.448H94.816V14.224ZM109.986 22V4.96H111.666V20.512H121.506V22H109.986Z" fill="white"/>
<path d="M93.136 22H91.836V23.3H93.136V22ZM93.136 4.96V3.66H91.836V4.96H93.136ZM102.208 5.416L101.627 6.57882L101.639 6.58469L102.208 5.416ZM103.816 6.664L102.825 7.50507L102.831 7.51261L102.838 7.52005L103.816 6.664ZM104.872 8.392L103.665 8.87482L103.669 8.88542L104.872 8.392ZM104.632 12.952L103.469 12.3706L103.465 12.3798L104.632 12.952ZM102.928 14.944L102.186 13.8768L102.186 13.8768L102.928 14.944ZM94.816 15.712V14.412H93.516V15.712H94.816ZM94.816 22V23.3H96.116V22H94.816ZM94.816 14.224H93.516V15.524H94.816V14.224ZM103.168 12.232L104.349 12.7748L104.349 12.7748L103.168 12.232ZM103.096 8.368L101.952 8.98617L101.952 8.98617L103.096 8.368ZM101.824 6.976L101.088 8.04725L101.107 8.06035L101.126 8.07276L101.824 6.976ZM94.816 6.448V5.148H93.516V6.448H94.816ZM94.436 22V4.96H91.836V22H94.436ZM93.136 6.26H100.192V3.66H93.136V6.26ZM100.192 6.26C100.743 6.26 101.214 6.37233 101.627 6.57875L102.789 4.25324C101.986 3.85167 101.113 3.66 100.192 3.66V6.26ZM101.639 6.58469C102.101 6.81006 102.493 7.11464 102.825 7.50507L104.807 5.82293C104.243 5.15736 103.563 4.62994 102.777 4.24731L101.639 6.58469ZM102.838 7.52005C103.188 7.91998 103.463 8.36942 103.665 8.87481L106.079 7.90919C105.769 7.13458 105.34 6.43202 104.794 5.80794L102.838 7.52005ZM103.669 8.88542C103.863 9.35735 103.956 9.83004 103.956 10.312H106.556C106.556 9.48196 106.393 8.67465 106.075 7.89858L103.669 8.88542ZM103.956 10.312C103.956 11.0377 103.795 11.7187 103.469 12.3706L105.795 13.5334C106.301 12.5213 106.556 11.4423 106.556 10.312H103.956ZM103.465 12.3798C103.161 13.0002 102.738 13.4928 102.186 13.8768L103.67 16.0112C104.59 15.3712 105.303 14.5358 105.799 13.5242L103.465 12.3798ZM102.186 13.8768C101.691 14.2212 101.092 14.412 100.336 14.412V17.012C101.564 17.012 102.693 16.6908 103.67 16.0112L102.186 13.8768ZM100.336 14.412H94.816V17.012H100.336V14.412ZM93.516 15.712V22H96.116V15.712H93.516ZM94.816 20.7H93.136V23.3H94.816V20.7ZM94.816 15.524H100.264V12.924H94.816V15.524ZM100.264 15.524C101.189 15.524 102.051 15.2651 102.791 14.716L101.241 12.628C100.989 12.8149 100.683 12.924 100.264 12.924V15.524ZM102.791 14.716C103.472 14.2106 103.991 13.5541 104.349 12.7748L101.987 11.6892C101.801 12.0939 101.552 12.3974 101.241 12.628L102.791 14.716ZM104.349 12.7748C104.704 12.003 104.876 11.1766 104.876 10.312H102.276C102.276 10.8234 102.176 11.277 101.987 11.6892L104.349 12.7748ZM104.876 10.312C104.876 9.40247 104.667 8.54058 104.24 7.74983L101.952 8.98617C102.165 9.37942 102.276 9.81353 102.276 10.312H104.876ZM104.24 7.74983C103.822 6.97805 103.251 6.34308 102.522 5.87924L101.126 8.07276C101.453 8.28091 101.73 8.57395 101.952 8.98617L104.24 7.74983ZM102.56 5.90474C101.831 5.40307 101.006 5.148 100.12 5.148V7.748C100.482 7.748 100.793 7.84493 101.088 8.04725L102.56 5.90474ZM100.12 5.148H94.816V7.748H100.12V5.148ZM93.516 6.448V14.224H96.116V6.448H93.516ZM109.986 22H108.686V23.3H109.986V22ZM109.986 4.96V3.66H108.686V4.96H109.986ZM111.666 4.96H112.966V3.66H111.666V4.96ZM111.666 20.512H110.366V21.812H111.666V20.512ZM121.506 20.512H122.806V19.212H121.506V20.512ZM121.506 22V23.3H122.806V22H121.506ZM111.286 22V4.96H108.686V22H111.286ZM109.986 6.26H111.666V3.66H109.986V6.26ZM110.366 4.96V20.512H112.966V4.96H110.366ZM111.666 21.812H121.506V19.212H111.666V21.812ZM120.206 20.512V22H122.806V20.512H120.206ZM121.506 20.7H109.986V23.3H121.506V20.7Z" fill="white"/>
<path d="M131.416 4.96H132.832L139.912 22H138.136L135.928 16.672H128.272L126.088 22H124.288L131.416 4.96ZM135.544 15.352L132.112 6.928L128.632 15.352H135.544ZM142.514 13.36C142.514 12.32 142.69 11.304 143.042 10.312C143.41 9.304 143.938 8.392 144.626 7.576C145.314 6.744 146.162 6.088 147.17 5.608C148.178 5.112 149.322 4.864 150.602 4.864C152.122 4.864 153.418 5.216 154.49 5.92C155.578 6.608 156.378 7.496 156.89 8.584L155.57 9.4C155.202 8.648 154.738 8.056 154.178 7.624C153.618 7.176 153.018 6.856 152.378 6.664C151.754 6.472 151.13 6.376 150.506 6.376C149.482 6.376 148.578 6.584 147.794 7C147.01 7.4 146.346 7.944 145.802 8.632C145.274 9.304 144.874 10.064 144.602 10.912C144.33 11.744 144.194 12.592 144.194 13.456C144.194 14.4 144.354 15.304 144.674 16.168C144.994 17.032 145.442 17.8 146.018 18.472C146.594 19.128 147.266 19.656 148.034 20.056C148.818 20.44 149.666 20.632 150.578 20.632C151.218 20.632 151.874 20.52 152.546 20.296C153.218 20.072 153.842 19.728 154.418 19.264C155.01 18.8 155.482 18.2 155.834 17.464L157.226 18.184C156.874 19.032 156.33 19.752 155.594 20.344C154.858 20.936 154.034 21.384 153.122 21.688C152.226 21.992 151.346 22.144 150.482 22.144C149.314 22.144 148.242 21.896 147.266 21.4C146.29 20.888 145.442 20.216 144.722 19.384C144.018 18.536 143.474 17.592 143.09 16.552C142.706 15.496 142.514 14.432 142.514 13.36ZM173.463 20.512V22H162.015V4.96H173.247V6.448H163.695V12.592H172.023V14.008H163.695V20.512H173.463Z" fill="white"/>
<path d="M131.416 4.96V3.66H130.551L130.217 4.45832L131.416 4.96ZM132.832 4.96L134.033 4.4612L133.7 3.66H132.832V4.96ZM139.912 22V23.3H141.86L141.113 21.5012L139.912 22ZM138.136 22L136.935 22.4977L137.268 23.3H138.136V22ZM135.928 16.672L137.129 16.1743L136.796 15.372H135.928V16.672ZM128.272 16.672V15.372H127.4L127.069 16.1789L128.272 16.672ZM126.088 22V23.3H126.96L127.291 22.4931L126.088 22ZM124.288 22L123.089 21.4983L122.335 23.3H124.288V22ZM135.544 15.352V16.652H137.477L136.748 14.8615L135.544 15.352ZM132.112 6.928L133.316 6.43751L132.12 3.50294L130.91 6.43165L132.112 6.928ZM128.632 15.352L127.43 14.8556L126.688 16.652H128.632V15.352ZM131.416 6.26H132.832V3.66H131.416V6.26ZM131.632 5.4588L138.712 22.4988L141.113 21.5012L134.033 4.4612L131.632 5.4588ZM139.912 20.7H138.136V23.3H139.912V20.7ZM139.337 21.5023L137.129 16.1743L134.727 17.1697L136.935 22.4977L139.337 21.5023ZM135.928 15.372H128.272V17.972H135.928V15.372ZM127.069 16.1789L124.885 21.5069L127.291 22.4931L129.475 17.1651L127.069 16.1789ZM126.088 20.7H124.288V23.3H126.088V20.7ZM125.487 22.5017L132.615 5.46168L130.217 4.45832L123.089 21.4983L125.487 22.5017ZM136.748 14.8615L133.316 6.43751L130.908 7.41849L134.34 15.8425L136.748 14.8615ZM130.91 6.43165L127.43 14.8556L129.834 15.8484L133.314 7.42435L130.91 6.43165ZM128.632 16.652H135.544V14.052H128.632V16.652ZM143.042 10.312L141.821 9.86616L141.817 9.87727L143.042 10.312ZM144.626 7.576L145.62 8.41401L145.628 8.40444L144.626 7.576ZM147.17 5.608L147.729 6.78172L147.736 6.77812L147.744 6.77443L147.17 5.608ZM154.49 5.92L153.776 7.00663L153.786 7.01277L153.795 7.01875L154.49 5.92ZM156.89 8.584L157.574 9.68977L158.56 9.07991L158.066 8.03046L156.89 8.584ZM155.57 9.4L154.402 9.97142L155.033 11.2603L156.254 10.5058L155.57 9.4ZM154.178 7.624L153.366 8.63913L153.375 8.6463L153.384 8.65332L154.178 7.624ZM152.378 6.664L151.996 7.90654L152.004 7.90917L152.378 6.664ZM147.794 7L148.385 8.15799L148.394 8.15325L148.403 8.14835L147.794 7ZM145.802 8.632L144.782 7.82569L144.78 7.82883L145.802 8.632ZM144.602 10.912L145.838 11.316L145.84 11.3091L144.602 10.912ZM144.674 16.168L143.455 16.6195L143.455 16.6195L144.674 16.168ZM146.018 18.472L145.031 19.318L145.036 19.3239L145.041 19.3297L146.018 18.472ZM148.034 20.056L147.433 21.209L147.448 21.2164L147.462 21.2235L148.034 20.056ZM152.546 20.296L152.135 19.0627L152.135 19.0627L152.546 20.296ZM154.418 19.264L153.616 18.2408L153.609 18.2462L153.602 18.2516L154.418 19.264ZM155.834 17.464L156.431 16.3093L155.24 15.6931L154.661 16.9031L155.834 17.464ZM157.226 18.184L158.427 18.6824L158.885 17.5785L157.823 17.0293L157.226 18.184ZM155.594 20.344L154.779 19.331L154.779 19.331L155.594 20.344ZM153.122 21.688L152.711 20.4547L152.704 20.4569L153.122 21.688ZM147.266 21.4L146.662 22.5512L146.669 22.5551L146.677 22.5589L147.266 21.4ZM144.722 19.384L143.722 20.2144L143.73 20.2246L143.739 20.2347L144.722 19.384ZM143.09 16.552L141.868 16.9963L141.87 17.0023L143.09 16.552ZM143.814 13.36C143.814 12.4699 143.964 11.6009 144.267 10.7467L141.817 9.87727C141.416 11.0071 141.214 12.1701 141.214 13.36H143.814ZM144.263 10.7578C144.579 9.89205 145.03 9.11294 145.62 8.41398L143.632 6.73802C142.845 7.67106 142.241 8.71594 141.821 9.86618L144.263 10.7578ZM145.628 8.40444C146.191 7.72347 146.886 7.18313 147.729 6.78172L146.611 4.43428C145.438 4.99287 144.437 5.76453 143.624 6.74756L145.628 8.40444ZM147.744 6.77443C148.55 6.37783 149.493 6.164 150.602 6.164V3.564C149.151 3.564 147.806 3.84617 146.596 4.44156L147.744 6.77443ZM150.602 6.164C151.916 6.164 152.953 6.46592 153.776 7.00663L155.204 4.83337C153.883 3.96608 152.328 3.564 150.602 3.564V6.164ZM153.795 7.01875C154.689 7.58427 155.315 8.28933 155.714 9.13754L158.066 8.03046C157.441 6.70267 156.466 5.63173 155.185 4.82125L153.795 7.01875ZM156.206 7.47823L154.886 8.29423L156.254 10.5058L157.574 9.68977L156.206 7.47823ZM156.738 8.82858C156.298 7.93 155.717 7.16905 154.972 6.59468L153.384 8.65332C153.759 8.94294 154.106 9.366 154.402 9.97142L156.738 8.82858ZM154.99 6.60887C154.31 6.06449 153.562 5.66212 152.751 5.41882L152.004 7.90917C152.473 8.04988 152.926 8.2875 153.366 8.63913L154.99 6.60887ZM152.76 5.42149C152.018 5.19315 151.265 5.076 150.506 5.076V7.676C150.994 7.676 151.49 7.75085 151.996 7.90651L152.76 5.42149ZM150.506 5.076C149.302 5.076 148.183 5.32172 147.185 5.85165L148.403 8.14835C148.973 7.84627 149.662 7.676 150.506 7.676V5.076ZM147.203 5.84201C146.253 6.32671 145.443 6.99044 144.782 7.82569L146.822 9.43831C147.249 8.89755 147.767 8.47329 148.385 8.15799L147.203 5.84201ZM144.78 7.82883C144.152 8.62738 143.681 9.5261 143.364 10.5149L145.84 11.3091C146.067 10.6019 146.396 9.98061 146.824 9.43517L144.78 7.82883ZM143.366 10.508C143.052 11.4687 142.894 12.453 142.894 13.456H145.494C145.494 12.731 145.608 12.0193 145.838 11.316L143.366 10.508ZM142.894 13.456C142.894 14.5503 143.08 15.6074 143.455 16.6195L145.893 15.7165C145.628 15.0006 145.494 14.2497 145.494 13.456H142.894ZM143.455 16.6195C143.826 17.6217 144.351 18.5245 145.031 19.318L147.005 17.626C146.533 17.0755 146.162 16.4423 145.893 15.7165L143.455 16.6195ZM145.041 19.3297C145.722 20.1056 146.522 20.7341 147.433 21.209L148.634 18.903C148.01 18.5779 147.466 18.1504 146.995 17.6143L145.041 19.3297ZM147.462 21.2235C148.432 21.6986 149.477 21.932 150.578 21.932V19.332C149.855 19.332 149.204 19.1814 148.606 18.8885L147.462 21.2235ZM150.578 21.932C151.372 21.932 152.167 21.7928 152.957 21.5293L152.135 19.0627C151.581 19.2472 151.064 19.332 150.578 19.332V21.932ZM152.957 21.5293C153.782 21.2542 154.542 20.8332 155.233 20.2764L153.602 18.2516C153.142 18.6228 152.654 18.8898 152.135 19.0627L152.957 21.5293ZM155.22 20.2872C155.982 19.6895 156.576 18.9259 157.007 18.0249L154.661 16.9031C154.388 17.4741 154.037 17.9105 153.616 18.2408L155.22 20.2872ZM155.237 18.6187L156.629 19.3387L157.823 17.0293L156.431 16.3093L155.237 18.6187ZM156.025 17.6856C155.759 18.3265 155.351 18.8714 154.779 19.331L156.409 21.357C157.309 20.6326 157.989 19.7375 158.427 18.6824L156.025 17.6856ZM154.779 19.331C154.166 19.8244 153.479 20.1987 152.711 20.4547L153.533 22.9213C154.589 22.5693 155.55 22.0476 156.409 21.357L154.779 19.331ZM152.704 20.4569C151.93 20.7196 151.191 20.844 150.482 20.844V23.444C151.501 23.444 152.522 23.2644 153.54 22.9191L152.704 20.4569ZM150.482 20.844C149.505 20.844 148.636 20.6382 147.855 20.2411L146.677 22.5589C147.848 23.1538 149.123 23.444 150.482 23.444V20.844ZM147.87 20.2488C147.038 19.8122 146.318 19.2421 145.705 18.5333L143.739 20.2347C144.566 21.1899 145.542 21.9638 146.662 22.5512L147.87 20.2488ZM145.722 18.5536C145.113 17.8197 144.643 17.0043 144.309 16.1017L141.87 17.0023C142.305 18.1797 142.923 19.2523 143.722 20.2144L145.722 18.5536ZM144.312 16.1077C143.977 15.1872 143.814 14.2733 143.814 13.36H141.214C141.214 14.5907 141.435 15.8048 141.868 16.9963L144.312 16.1077ZM173.463 20.512H174.763V19.212H173.463V20.512ZM173.463 22V23.3H174.763V22H173.463ZM162.015 22H160.715V23.3H162.015V22ZM162.015 4.96V3.66H160.715V4.96H162.015ZM173.247 4.96H174.547V3.66H173.247V4.96ZM173.247 6.448V7.748H174.547V6.448H173.247ZM163.695 6.448V5.148H162.395V6.448H163.695ZM163.695 12.592H162.395V13.892H163.695V12.592ZM172.023 12.592H173.323V11.292H172.023V12.592ZM172.023 14.008V15.308H173.323V14.008H172.023ZM163.695 14.008V12.708H162.395V14.008H163.695ZM163.695 20.512H162.395V21.812H163.695V20.512ZM172.163 20.512V22H174.763V20.512H172.163ZM173.463 20.7H162.015V23.3H173.463V20.7ZM163.315 22V4.96H160.715V22H163.315ZM162.015 6.26H173.247V3.66H162.015V6.26ZM171.947 4.96V6.448H174.547V4.96H171.947ZM173.247 5.148H163.695V7.748H173.247V5.148ZM162.395 6.448V12.592H164.995V6.448H162.395ZM163.695 13.892H172.023V11.292H163.695V13.892ZM170.723 12.592V14.008H173.323V12.592H170.723ZM172.023 12.708H163.695V15.308H172.023V12.708ZM162.395 14.008V20.512H164.995V14.008H162.395ZM163.695 21.812H173.463V19.212H163.695V21.812Z" fill="white"/>
<rect y="33" width="49" height="9" fill="white"/>
<path d="M95.017 32.77H95.784L99.619 42H98.657L97.461 39.114H93.314L92.131 42H91.156L95.017 32.77ZM97.253 38.399L95.394 33.836L93.509 38.399H97.253ZM104.595 42.13C104.066 42.13 103.577 41.9957 103.126 41.727C102.675 41.4497 102.324 41.103 102.073 40.687V42H101.28V32.51H102.164V36.644C102.467 36.1847 102.831 35.8163 103.256 35.539C103.681 35.253 104.175 35.11 104.738 35.11C105.215 35.11 105.639 35.2097 106.012 35.409C106.393 35.6083 106.718 35.877 106.987 36.215C107.256 36.5443 107.459 36.9213 107.598 37.346C107.737 37.762 107.806 38.191 107.806 38.633C107.806 39.1097 107.724 39.556 107.559 39.972C107.403 40.388 107.178 40.7607 106.883 41.09C106.588 41.4107 106.246 41.6663 105.856 41.857C105.475 42.039 105.054 42.13 104.595 42.13ZM104.387 41.35C104.751 41.35 105.089 41.2763 105.401 41.129C105.713 40.9817 105.982 40.778 106.207 40.518C106.432 40.258 106.606 39.9677 106.727 39.647C106.848 39.3177 106.909 38.9797 106.909 38.633C106.909 38.1563 106.805 37.71 106.597 37.294C106.398 36.8693 106.116 36.5313 105.752 36.28C105.397 36.02 104.976 35.89 104.491 35.89C104.144 35.89 103.819 35.968 103.516 36.124C103.221 36.28 102.957 36.488 102.723 36.748C102.498 36.9993 102.311 37.2767 102.164 37.58V39.686C102.199 39.92 102.29 40.141 102.437 40.349C102.584 40.5483 102.766 40.7217 102.983 40.869C103.208 41.0163 103.442 41.1333 103.685 41.22C103.928 41.3067 104.162 41.35 104.387 41.35ZM112.71 42.13C112.224 42.13 111.774 42.039 111.358 41.857C110.95 41.6663 110.595 41.4107 110.292 41.09C109.997 40.7607 109.767 40.388 109.603 39.972C109.438 39.5473 109.356 39.101 109.356 38.633C109.356 38.1477 109.438 37.697 109.603 37.281C109.767 36.8563 110.001 36.4837 110.305 36.163C110.608 35.8337 110.963 35.578 111.371 35.396C111.787 35.2053 112.237 35.11 112.723 35.11C113.208 35.11 113.654 35.2053 114.062 35.396C114.469 35.578 114.824 35.8337 115.128 36.163C115.431 36.4837 115.665 36.8563 115.83 37.281C115.994 37.697 116.077 38.1477 116.077 38.633C116.077 39.101 115.994 39.5473 115.83 39.972C115.665 40.388 115.431 40.7607 115.128 41.09C114.833 41.4107 114.478 41.6663 114.062 41.857C113.654 42.039 113.204 42.13 112.71 42.13ZM110.253 38.646C110.253 39.1487 110.361 39.608 110.578 40.024C110.803 40.4313 111.102 40.7563 111.475 40.999C111.847 41.233 112.259 41.35 112.71 41.35C113.16 41.35 113.572 41.2287 113.945 40.986C114.317 40.7433 114.616 40.414 114.842 39.998C115.067 39.5733 115.18 39.114 115.18 38.62C115.18 38.1173 115.067 37.658 114.842 37.242C114.616 36.826 114.317 36.4967 113.945 36.254C113.572 36.0113 113.16 35.89 112.71 35.89C112.259 35.89 111.847 36.0157 111.475 36.267C111.111 36.5183 110.816 36.852 110.591 37.268C110.365 37.6753 110.253 38.1347 110.253 38.646ZM118.01 39.205V35.227H118.894V39.049C118.894 39.8203 119.024 40.3967 119.284 40.778C119.553 41.1593 119.947 41.35 120.467 41.35C120.814 41.35 121.147 41.2763 121.468 41.129C121.797 40.973 122.088 40.7563 122.339 40.479C122.59 40.193 122.781 39.8637 122.911 39.491V35.227H123.795V40.934C123.795 41.0553 123.821 41.1463 123.873 41.207C123.925 41.259 124.003 41.2893 124.107 41.298V42C124.003 42.0087 123.921 42.013 123.86 42.013C123.799 42.0217 123.743 42.026 123.691 42.026C123.518 42.0087 123.366 41.9393 123.236 41.818C123.115 41.6967 123.05 41.5493 123.041 41.376L123.015 40.466C122.72 40.986 122.317 41.3933 121.806 41.688C121.303 41.9827 120.757 42.13 120.168 42.13C119.457 42.13 118.92 41.883 118.556 41.389C118.192 40.895 118.01 40.167 118.01 39.205ZM129.564 41.675C129.494 41.701 129.386 41.7487 129.239 41.818C129.091 41.8873 128.914 41.948 128.706 42C128.498 42.052 128.272 42.078 128.03 42.078C127.778 42.078 127.54 42.0303 127.315 41.935C127.098 41.8397 126.925 41.6967 126.795 41.506C126.665 41.3067 126.6 41.064 126.6 40.778V35.929H125.664V35.227H126.6V32.939H127.484V35.227H129.044V35.929H127.484V40.531C127.501 40.7737 127.588 40.9557 127.744 41.077C127.908 41.1983 128.095 41.259 128.303 41.259C128.545 41.259 128.766 41.22 128.966 41.142C129.165 41.0553 129.286 40.9947 129.33 40.96L129.564 41.675Z" fill="white"/>
<path d="M52.157 42V32.77H53.067V41.194H58.397V42H52.157ZM62.8468 42.13C62.3614 42.13 61.9108 42.039 61.4948 41.857C61.0788 41.6663 60.7191 41.4107 60.4158 41.09C60.1124 40.7607 59.8741 40.3837 59.7008 39.959C59.5361 39.5343 59.4538 39.0793 59.4538 38.594C59.4538 37.9613 59.5968 37.3807 59.8828 36.852C60.1774 36.3233 60.5804 35.903 61.0918 35.591C61.6031 35.2703 62.1838 35.11 62.8338 35.11C63.5011 35.11 64.0818 35.2703 64.5758 35.591C65.0784 35.9117 65.4728 36.3363 65.7588 36.865C66.0448 37.385 66.1878 37.957 66.1878 38.581C66.1878 38.6503 66.1878 38.7197 66.1878 38.789C66.1878 38.8497 66.1834 38.8973 66.1748 38.932H60.3768C60.4201 39.4173 60.5544 39.8507 60.7798 40.232C61.0138 40.6047 61.3128 40.9037 61.6768 41.129C62.0494 41.3457 62.4524 41.454 62.8858 41.454C63.3278 41.454 63.7438 41.3413 64.1338 41.116C64.5324 40.8907 64.8098 40.596 64.9658 40.232L65.7328 40.44C65.5941 40.7607 65.3818 41.051 65.0958 41.311C64.8098 41.571 64.4718 41.7747 64.0818 41.922C63.7004 42.0607 63.2888 42.13 62.8468 42.13ZM60.3508 38.295H65.3558C65.3211 37.801 65.1868 37.3677 64.9528 36.995C64.7274 36.6223 64.4284 36.332 64.0558 36.124C63.6918 35.9073 63.2888 35.799 62.8468 35.799C62.4048 35.799 62.0018 35.9073 61.6378 36.124C61.2738 36.332 60.9748 36.6267 60.7408 37.008C60.5154 37.3807 60.3854 37.8097 60.3508 38.295ZM67.5256 40.05C67.5256 39.6253 67.647 39.2613 67.8896 38.958C68.1323 38.646 68.466 38.4077 68.8906 38.243C69.324 38.0697 69.8223 37.983 70.3856 37.983C70.715 37.983 71.0573 38.009 71.4126 38.061C71.768 38.113 72.0843 38.191 72.3616 38.295V37.723C72.3616 37.151 72.1926 36.696 71.8546 36.358C71.5166 36.02 71.0486 35.851 70.4506 35.851C70.0866 35.851 69.727 35.9203 69.3716 36.059C69.025 36.189 68.661 36.384 68.2796 36.644L67.9416 36.02C68.3836 35.7167 68.817 35.4913 69.2416 35.344C69.6663 35.188 70.0996 35.11 70.5416 35.11C71.3736 35.11 72.0323 35.3483 72.5176 35.825C73.003 36.3017 73.2456 36.9603 73.2456 37.801V40.934C73.2456 41.0553 73.2716 41.1463 73.3236 41.207C73.3756 41.259 73.458 41.2893 73.5706 41.298V42C73.4753 42.0087 73.393 42.0173 73.3236 42.026C73.2543 42.0347 73.2023 42.0347 73.1676 42.026C72.951 42.0173 72.7863 41.948 72.6736 41.818C72.561 41.688 72.5003 41.5493 72.4916 41.402L72.4786 40.908C72.1753 41.298 71.781 41.6013 71.2956 41.818C70.8103 42.026 70.3163 42.13 69.8136 42.13C69.3803 42.13 68.986 42.039 68.6306 41.857C68.284 41.6663 68.011 41.415 67.8116 41.103C67.621 40.7823 67.5256 40.4313 67.5256 40.05ZM72.0626 40.57C72.158 40.4487 72.2316 40.3317 72.2836 40.219C72.3356 40.1063 72.3616 40.0067 72.3616 39.92V38.932C72.067 38.8193 71.7593 38.7327 71.4386 38.672C71.1266 38.6113 70.8103 38.581 70.4896 38.581C69.857 38.581 69.3456 38.7067 68.9556 38.958C68.5656 39.2093 68.3706 39.5517 68.3706 39.985C68.3706 40.2363 68.4356 40.4747 68.5656 40.7C68.6956 40.9167 68.8863 41.0987 69.1376 41.246C69.389 41.3847 69.6836 41.454 70.0216 41.454C70.4463 41.454 70.8406 41.3717 71.2046 41.207C71.5773 41.0423 71.8633 40.83 72.0626 40.57ZM79.0556 36.007C78.4663 36.0243 77.9463 36.189 77.4956 36.501C77.0536 36.813 76.7416 37.242 76.5596 37.788V42H75.6756V35.227H76.5076V36.852C76.7416 36.3753 77.0493 35.9897 77.4306 35.695C77.8206 35.4003 78.2323 35.2357 78.6656 35.201C78.7523 35.1923 78.826 35.188 78.8866 35.188C78.956 35.188 79.0123 35.1923 79.0556 35.201V36.007ZM86.4472 42H85.5632V38.217C85.5632 37.4197 85.4462 36.839 85.2122 36.475C84.9782 36.1023 84.6099 35.916 84.1072 35.916C83.7606 35.916 83.4182 36.0027 83.0802 36.176C82.7422 36.3407 82.4432 36.5703 82.1832 36.865C81.9319 37.151 81.7499 37.4803 81.6372 37.853V42H80.7532V35.227H81.5592V36.761C81.7412 36.4317 81.9796 36.1457 82.2742 35.903C82.5689 35.6517 82.9026 35.4567 83.2752 35.318C83.6479 35.1793 84.0336 35.11 84.4322 35.11C84.8049 35.11 85.1212 35.1793 85.3812 35.318C85.6412 35.4567 85.8492 35.656 86.0052 35.916C86.1612 36.1673 86.2739 36.475 86.3432 36.839C86.4126 37.1943 86.4472 37.593 86.4472 38.035V42Z" fill="white"/>
<path d="M140.552 34.499C140.422 34.3517 140.27 34.2217 140.097 34.109C139.924 33.9877 139.729 33.8837 139.512 33.797C139.295 33.7103 139.061 33.641 138.81 33.589C138.567 33.537 138.307 33.511 138.03 33.511C137.224 33.511 136.63 33.667 136.249 33.979C135.876 34.2823 135.69 34.6983 135.69 35.227C135.69 35.591 135.777 35.877 135.95 36.085C136.132 36.293 136.414 36.462 136.795 36.592C137.176 36.722 137.662 36.8563 138.251 36.995C138.91 37.1337 139.477 37.2983 139.954 37.489C140.431 37.6797 140.799 37.9397 141.059 38.269C141.319 38.5897 141.449 39.0273 141.449 39.582C141.449 40.0067 141.367 40.375 141.202 40.687C141.037 40.999 140.808 41.259 140.513 41.467C140.218 41.675 139.867 41.831 139.46 41.935C139.053 42.0303 138.606 42.078 138.121 42.078C137.644 42.078 137.185 42.0303 136.743 41.935C136.31 41.831 135.898 41.6837 135.508 41.493C135.118 41.2937 134.754 41.0423 134.416 40.739L134.871 39.998C135.036 40.1713 135.231 40.336 135.456 40.492C135.69 40.6393 135.946 40.7737 136.223 40.895C136.509 41.0163 136.812 41.1117 137.133 41.181C137.462 41.2417 137.8 41.272 138.147 41.272C138.884 41.272 139.456 41.1377 139.863 40.869C140.279 40.6003 140.487 40.2017 140.487 39.673C140.487 39.2917 140.383 38.9883 140.175 38.763C139.967 38.529 139.655 38.3383 139.239 38.191C138.823 38.0437 138.312 37.9007 137.705 37.762C137.064 37.6147 136.522 37.45 136.08 37.268C135.638 37.086 135.304 36.8477 135.079 36.553C134.862 36.2497 134.754 35.851 134.754 35.357C134.754 34.785 134.893 34.304 135.17 33.914C135.456 33.5153 135.846 33.2163 136.34 33.017C136.834 32.809 137.402 32.705 138.043 32.705C138.45 32.705 138.827 32.7483 139.174 32.835C139.529 32.913 139.854 33.03 140.149 33.186C140.452 33.342 140.734 33.537 140.994 33.771L140.552 34.499ZM146.849 42.13C146.286 42.13 145.779 41.9827 145.328 41.688C144.886 41.3933 144.535 41.0293 144.275 40.596V44.769H143.391V35.227H144.184V36.54C144.453 36.1153 144.813 35.773 145.263 35.513C145.714 35.2443 146.195 35.11 146.706 35.11C147.174 35.11 147.603 35.2097 147.993 35.409C148.383 35.5997 148.721 35.8597 149.007 36.189C149.293 36.5183 149.514 36.8953 149.67 37.32C149.835 37.736 149.917 38.1693 149.917 38.62C149.917 39.2527 149.787 39.8377 149.527 40.375C149.276 40.9037 148.921 41.3283 148.461 41.649C148.002 41.9697 147.465 42.13 146.849 42.13ZM146.602 41.35C146.975 41.35 147.309 41.2763 147.603 41.129C147.898 40.973 148.149 40.765 148.357 40.505C148.574 40.245 148.739 39.9547 148.851 39.634C148.964 39.3047 149.02 38.9667 149.02 38.62C149.02 38.256 148.955 37.9093 148.825 37.58C148.704 37.2507 148.526 36.9603 148.292 36.709C148.058 36.4577 147.79 36.2583 147.486 36.111C147.183 35.9637 146.854 35.89 146.498 35.89C146.273 35.89 146.039 35.9333 145.796 36.02C145.554 36.1067 145.32 36.2323 145.094 36.397C144.878 36.553 144.696 36.7307 144.548 36.93C144.401 37.1293 144.31 37.3417 144.275 37.567V39.647C144.414 39.9677 144.6 40.258 144.834 40.518C145.068 40.7693 145.337 40.973 145.64 41.129C145.952 41.2763 146.273 41.35 146.602 41.35ZM151.389 40.05C151.389 39.6253 151.51 39.2613 151.753 38.958C151.996 38.646 152.329 38.4077 152.754 38.243C153.187 38.0697 153.686 37.983 154.249 37.983C154.578 37.983 154.921 38.009 155.276 38.061C155.631 38.113 155.948 38.191 156.225 38.295V37.723C156.225 37.151 156.056 36.696 155.718 36.358C155.38 36.02 154.912 35.851 154.314 35.851C153.95 35.851 153.59 35.9203 153.235 36.059C152.888 36.189 152.524 36.384 152.143 36.644L151.805 36.02C152.247 35.7167 152.68 35.4913 153.105 35.344C153.53 35.188 153.963 35.11 154.405 35.11C155.237 35.11 155.896 35.3483 156.381 35.825C156.866 36.3017 157.109 36.9603 157.109 37.801V40.934C157.109 41.0553 157.135 41.1463 157.187 41.207C157.239 41.259 157.321 41.2893 157.434 41.298V42C157.339 42.0087 157.256 42.0173 157.187 42.026C157.118 42.0347 157.066 42.0347 157.031 42.026C156.814 42.0173 156.65 41.948 156.537 41.818C156.424 41.688 156.364 41.5493 156.355 41.402L156.342 40.908C156.039 41.298 155.644 41.6013 155.159 41.818C154.674 42.026 154.18 42.13 153.677 42.13C153.244 42.13 152.849 42.039 152.494 41.857C152.147 41.6663 151.874 41.415 151.675 41.103C151.484 40.7823 151.389 40.4313 151.389 40.05ZM155.926 40.57C156.021 40.4487 156.095 40.3317 156.147 40.219C156.199 40.1063 156.225 40.0067 156.225 39.92V38.932C155.93 38.8193 155.623 38.7327 155.302 38.672C154.99 38.6113 154.674 38.581 154.353 38.581C153.72 38.581 153.209 38.7067 152.819 38.958C152.429 39.2093 152.234 39.5517 152.234 39.985C152.234 40.2363 152.299 40.4747 152.429 40.7C152.559 40.9167 152.75 41.0987 153.001 41.246C153.252 41.3847 153.547 41.454 153.885 41.454C154.31 41.454 154.704 41.3717 155.068 41.207C155.441 41.0423 155.727 40.83 155.926 40.57ZM162.477 42.13C161.983 42.13 161.528 42.039 161.112 41.857C160.705 41.6663 160.345 41.4063 160.033 41.077C159.73 40.7477 159.491 40.3707 159.318 39.946C159.153 39.5213 159.071 39.0707 159.071 38.594C159.071 37.9527 159.214 37.3677 159.5 36.839C159.786 36.3103 160.185 35.89 160.696 35.578C161.207 35.266 161.797 35.11 162.464 35.11C163.097 35.11 163.656 35.2573 164.141 35.552C164.626 35.838 164.986 36.228 165.22 36.722L164.362 36.995C164.171 36.6483 163.903 36.3797 163.556 36.189C163.218 35.9897 162.841 35.89 162.425 35.89C161.974 35.89 161.563 36.007 161.19 36.241C160.817 36.475 160.518 36.7957 160.293 37.203C160.076 37.6103 159.968 38.074 159.968 38.594C159.968 39.1053 160.081 39.569 160.306 39.985C160.531 40.401 160.83 40.7347 161.203 40.986C161.576 41.2287 161.987 41.35 162.438 41.35C162.733 41.35 163.014 41.298 163.283 41.194C163.56 41.09 163.799 40.9513 163.998 40.778C164.206 40.596 164.345 40.401 164.414 40.193L165.285 40.453C165.164 40.7737 164.96 41.064 164.674 41.324C164.397 41.5753 164.067 41.7747 163.686 41.922C163.313 42.0607 162.91 42.13 162.477 42.13ZM170.055 42.13C169.57 42.13 169.119 42.039 168.703 41.857C168.287 41.6663 167.928 41.4107 167.624 41.09C167.321 40.7607 167.083 40.3837 166.909 39.959C166.745 39.5343 166.662 39.0793 166.662 38.594C166.662 37.9613 166.805 37.3807 167.091 36.852C167.386 36.3233 167.789 35.903 168.3 35.591C168.812 35.2703 169.392 35.11 170.042 35.11C170.71 35.11 171.29 35.2703 171.784 35.591C172.287 35.9117 172.681 36.3363 172.967 36.865C173.253 37.385 173.396 37.957 173.396 38.581C173.396 38.6503 173.396 38.7197 173.396 38.789C173.396 38.8497 173.392 38.8973 173.383 38.932H167.585C167.629 39.4173 167.763 39.8507 167.988 40.232C168.222 40.6047 168.521 40.9037 168.885 41.129C169.258 41.3457 169.661 41.454 170.094 41.454C170.536 41.454 170.952 41.3413 171.342 41.116C171.741 40.8907 172.018 40.596 172.174 40.232L172.941 40.44C172.803 40.7607 172.59 41.051 172.304 41.311C172.018 41.571 171.68 41.7747 171.29 41.922C170.909 42.0607 170.497 42.13 170.055 42.13ZM167.559 38.295H172.564C172.53 37.801 172.395 37.3677 172.161 36.995C171.936 36.6223 171.637 36.332 171.264 36.124C170.9 35.9073 170.497 35.799 170.055 35.799C169.613 35.799 169.21 35.9073 168.846 36.124C168.482 36.332 168.183 36.6267 167.949 37.008C167.724 37.3807 167.594 37.8097 167.559 38.295Z" fill="white"/>
</svg>
